<?xml version="1.0" standalone="no"?>
<!DOCTYPE svg PUBLIC "-//W3C//DTD SVG 20010904//EN"
 "http://www.w3.org/TR/2001/REC-SVG-20010904/DTD/svg10.dtd">
<svg version="1.0" xmlns="http://www.w3.org/2000/svg"
 width="333.000000pt" height="333.000000pt" viewBox="0 0 333.000000 333.000000"
 preserveAspectRatio="xMidYMid meet">
<metadata>
Created by potrace 1.16, written by Peter Selinger 2001-2019
</metadata>
<g transform="translate(0.000000,333.000000) scale(0.100000,-0.100000)"
fill="#ffffff" stroke="none">
<path d="M1200 3314 c-348 -44 -617 -169 -827 -387 -259 -267 -388 -636 -354
-1003 14 -146 42 -247 101 -372 125 -263 343 -459 625 -563 161 -60 147 -77
143 173 -4 251 -3 249 -127 354 -150 128 -156 148 -155 489 1 280 10 337 78
480 54 115 98 174 177 242 126 106 272 156 464 156 167 0 298 -40 431 -131 55
-37 237 -197 277 -244 16 -19 17 -6 17 300 l0 320 -82 41 c-195 96 -380 141
-593 146 -77 2 -156 1 -175 -1z"/>
<path d="M2070 2356 c-299 -43 -533 -157 -730 -355 -300 -301 -412 -710 -309
-1120 25 -99 104 -259 177 -357 308 -414 809 -596 1294 -469 194 50 300 109
492 271 72 61 138 119 146 128 16 20 19 16 -120 137 -36 31 -96 84 -135 118
l-70 61 -19 -28 c-37 -52 -147 -151 -208 -187 -107 -63 -195 -87 -343 -93
-111 -4 -143 -2 -215 17 -116 29 -205 84 -316 195 -149 150 -196 273 -198 521
-1 162 12 224 73 350 93 192 251 322 451 371 101 25 257 22 363 -5 173 -45
333 -161 413 -299 1 -2 13 7 26 20 29 29 175 159 250 224 31 27 57 52 57 56 1
11 -184 174 -274 241 -226 168 -523 243 -805 203z"/>
<path d="M2039 1733 c-2 -4 -58 -52 -125 -105 -163 -131 -239 -213 -259 -280
-24 -81 -14 -333 15 -362 17 -17 181 26 271 71 48 23 91 49 97 56 8 9 12 112
12 316 1 276 -1 328 -11 304z"/>
</g>
</svg>
