<?xml version="1.0" standalone="no"?>
<!DOCTYPE svg PUBLIC "-//W3C//DTD SVG 20010904//EN"
 "http://www.w3.org/TR/2001/REC-SVG-20010904/DTD/svg10.dtd">
<svg version="1.0" xmlns="http://www.w3.org/2000/svg"
 width="377.000000pt" height="377.000000pt" viewBox="0 0 377.000000 377.000000"
 preserveAspectRatio="xMidYMid meet">

<g transform="translate(0.000000,377.000000) scale(0.100000,-0.100000)"
fill="#101010" stroke="none">
<path d="M1385 3511 c-145 -26 -235 -55 -363 -118 -202 -98 -366 -239 -484
-418 -149 -223 -218 -453 -218 -719 0 -150 10 -223 46 -339 107 -341 374 -609
718 -721 43 -14 82 -26 87 -26 13 0 11 417 -2 443 -6 12 -62 72 -124 132 -94
90 -116 118 -127 155 -9 32 -13 123 -13 320 0 317 4 340 85 507 42 85 64 117
128 182 65 65 94 87 173 124 119 57 184 71 334 71 244 -1 387 -69 640 -308
l80 -76 3 302 c1 167 0 308 -2 314 -7 18 -182 99 -276 129 -207 64 -477 83
-685 46z"/>
<path d="M2340 2565 c-277 -42 -502 -154 -696 -349 -159 -159 -262 -338 -316
-552 -20 -77 -23 -113 -22 -274 0 -167 3 -194 26 -282 94 -346 388 -662 738
-794 258 -97 562 -102 816 -13 182 63 327 162 552 374 11 10 -16 38 -145 151
-87 76 -161 143 -166 149 -4 6 -22 -8 -44 -35 -87 -105 -183 -177 -298 -221
-138 -54 -348 -62 -486 -20 -195 61 -390 255 -456 455 -24 74 -26 95 -27 251
-1 152 1 178 22 245 28 88 63 160 105 215 166 219 383 315 644 286 56 -7 130
-21 165 -32 124 -40 279 -152 338 -245 l26 -42 145 130 c79 71 154 139 166
151 l22 22 -114 99 c-63 54 -140 119 -172 142 -219 165 -522 234 -823 189z"/>
<path d="M2220 1847 c-149 -119 -221 -192 -251 -253 -22 -45 -24 -60 -23 -184
1 -135 14 -210 37 -210 7 0 49 9 93 20 89 21 166 52 232 94 l42 26 0 300 c0
165 -3 300 -7 300 -5 0 -60 -42 -123 -93z"/>
</g>
</svg>
